<svg version="1.0" xmlns="http://www.w3.org/2000/svg"
 width="1019.000000pt" height="454.000000pt" viewBox="0 0 1019.000000 454.000000"
 preserveAspectRatio="xMidYMid meet">

<g transform="translate(0.000000,454.000000) scale(0.100000,-0.100000)"
fill="#000000" stroke="none">
<path d="M2820 2375 l0 -1175 1010 0 1010 0 0 175 0 175 -835 0 -835 0 0 345
0 345 778 2 777 3 3 173 2 172 -767 0 c-423 0 -774 0 -780 0 -10 0 -13 69 -13
310 0 241 3 310 13 310 6 0 374 1 817 3 l805 2 3 168 2 167 -995 0 -995 0 0
-1175z"/>
<path d="M5403 3542 l-203 -2 0 -650 0 -650 758 0 c416 0 785 0 820 0 l62 0 0
-345 0 -345 -820 0 -820 0 0 -175 0 -175 995 0 995 0 0 694 0 695 -797 0
c-439 1 -808 1 -820 1 l-23 0 0 310 0 310 23 0 c12 0 381 0 820 0 l797 1 0
169 0 170 -792 -2 c-436 -2 -884 -4 -995 -6z"/>
<path d="M7610 2375 l0 -1175 1020 0 1020 0 0 175 0 175 -840 0 -840 0 0 830
c0 657 3 830 13 830 6 0 382 0 833 0 697 0 823 2 827 14 3 8 6 84 6 170 l0
156 -1019 0 -1020 0 0 -1175z"/>
<path d="M1061 3530 c-4 -3 -109 -243 -234 -535 -124 -291 -328 -768 -453
-1060 -124 -291 -246 -576 -270 -633 l-43 -102 205 2 205 3 104 245 c178 425
603 1439 663 1582 31 76 59 138 62 138 3 0 113 -258 245 -573 404 -964 583
-1388 587 -1393 3 -2 95 -3 206 -2 l200 3 -43 100 c-43 99 -787 1842 -893
2090 -30 72 -56 131 -57 133 -4 4 -477 7 -484 2z"/>
</g>
</svg>
