<svg xmlns="http://www.w3.org/2000/svg" width="70" height="58" viewBox="0 0 70 58"><path d="M245.659,188.253a3.061,3.061,0,0,1-.38.014h-7.254v1.687h7.381c.056,0,.492,0,.576-.014a2.407,2.407,0,0,0,2.193-2.488,2.368,2.368,0,0,0-2.081-2.46,5.54,5.54,0,0,0-.59-.028h-4.822a2.452,2.452,0,0,1-.534-.042.707.707,0,0,1-.52-.717.721.721,0,0,1,.534-.7,2.006,2.006,0,0,1,.506-.042h6.959V181.8h-7.072a4.692,4.692,0,0,0-.7.042,2.412,2.412,0,0,0-.028,4.766c.253.028.6.028.759.028h4.7a2.391,2.391,0,0,1,.337.014.775.775,0,0,1,.717.815A.787.787,0,0,1,245.659,188.253Z" transform="translate(-204.841 -156.884)"/><path d="M147.859,188.253a2.939,2.939,0,0,1-.366.014h-7.268v1.687h7.381c.056,0,.492,0,.576-.014a2.407,2.407,0,0,0,2.193-2.488,2.368,2.368,0,0,0-2.081-2.46,5.539,5.539,0,0,0-.59-.028h-4.822a2.452,2.452,0,0,1-.534-.042.707.707,0,0,1-.52-.717.721.721,0,0,1,.534-.7,2.006,2.006,0,0,1,.506-.042h6.959V181.8h-7.072a4.692,4.692,0,0,0-.7.042,2.412,2.412,0,0,0-.028,4.766c.253.028.6.028.759.028h4.7a2.392,2.392,0,0,1,.337.014.81.81,0,0,1,.042,1.6Z" transform="translate(-120.596 -156.884)"/><rect width="1.828" height="8.252" transform="translate(14.12 24.86)"/><path d="M10.263,189.652V181.4H8.435v6.158L2.348,181.4H0v8.252H1.828v-6.186l6.13,6.186Z" transform="translate(0 -156.54)"/><path d="M439.535,181.4v6.158l-6.087-6.158H431.1v8.252h1.828v-6.186l6.116,6.186h2.306V181.4Z" transform="translate(-371.349 -156.54)"/><path d="M331.945,181.4l-5.145,8.252h2.221l.914-1.476h6l.914,1.476h2.207l-5.146-8.252ZM335,186.616h-4.119l2.067-3.318Z" transform="translate(-281.527 -156.54)"/><path d="M22.78,20.821a26.305,26.305,0,0,1,49.907,0l.028.084h7.952v-.97l-3.3-.394a3.233,3.233,0,0,1-3.025-2.306l-.139-.281a29.124,29.124,0,0,0-52.932.028l-.139.281A3.233,3.233,0,0,1,18.1,19.57l-3.3.394v.97h7.938Z" transform="translate(-12.719)"/><path d="M72.8,272.814l-.028.084A26.344,26.344,0,0,1,47.82,290.865h0a26.344,26.344,0,0,1-24.953-17.981l-.028-.084H14.9v.97l3.3.394a3.233,3.233,0,0,1,3.025,2.306l.139.281a29.291,29.291,0,0,0,26.466,16.983h0A29.3,29.3,0,0,0,74.3,276.765l.139-.281a3.233,3.233,0,0,1,3.025-2.306l3.3-.394v-.97Z" transform="translate(-12.805 -235.733)"/></svg>